<?xml version="1.0" encoding="UTF-8" standalone="no"?>
<svg
   width="509.60002441406255"
   height="302.2806895311632"
   viewBox="0 0 350.00000000000006 207.61035374272956"
   class="looka-1j8o68f"
   version="1.1"
   id="svg2"
   sodipodi:docname="logo.svg"
   inkscape:version="1.3.2 (091e20e, 2023-11-25, custom)"
   inkscape:export-filename="logo.png"
   inkscape:export-xdpi="96.45211"
   inkscape:export-ydpi="96.45211"
   xmlns:inkscape="http://www.inkscape.org/namespaces/inkscape"
   xmlns:sodipodi="http://sodipodi.sourceforge.net/DTD/sodipodi-0.dtd"
   xmlns="http://www.w3.org/2000/svg"
   xmlns:svg="http://www.w3.org/2000/svg">
  <sodipodi:namedview
     id="namedview2"
     pagecolor="#ffffff"
     bordercolor="#000000"
     borderopacity="0.25"
     inkscape:showpageshadow="2"
     inkscape:pageopacity="0.0"
     inkscape:pagecheckerboard="0"
     inkscape:deskcolor="#d1d1d1"
     inkscape:zoom="1.2578341"
     inkscape:cx="207.89705"
     inkscape:cy="211.07712"
     inkscape:window-width="2560"
     inkscape:window-height="1334"
     inkscape:window-x="-11"
     inkscape:window-y="-11"
     inkscape:window-maximized="1"
     inkscape:current-layer="svg2"
     inkscape:export-bgcolor="#efca08ff" />
  <defs
     id="SvgjsDefs8771" />
  <g
     id="g2"
     transform="translate(0,7.0983743)">
    <g
       id="SvgjsG8772"
       featurekey="symbolFeature-0"
       transform="matrix(1.3465924,0,0,1.3465924,108.34435,-4.2783908)"
       fill="#111111">
      <path
         fill="#ffffff"
         d="m 85.478,10.476 -79.485,4.539 2.029,64.209 5.157,4.857 10.669,-1.941 0.129,5.327 5.513,5.211 12.7,-13.966 48.809,-9.009 2.007,-56.817 z m 3.296,57.31 -47,8.675 -0.76,0.141 -0.519,0.571 -8.811,9.688 -0.093,-5.749 -0.045,-2.699 -2.654,0.484 -1.885,0.342 -3.214,0.585 -8.396,1.526 -1.617,-61.113 76.85,-4.904 z"
         id="path1" />
    </g>
    <g
       id="SvgjsG8773"
       featurekey="nameFeature-0"
       transform="matrix(1.6049069,0,0,1.6049069,24.170848,118.16909)"
       fill="#ffffff">
      <path
         d="M 24.88,40 H 2.72 V 11.76 H 23.6 V 17.2 H 9.76 v 5.16 h 12.92 v 5.36 H 9.76 v 6.72 H 24.88 Z M 45.8,19.12 39.04,40 H 32.6 L 25.8,19.12 h 6.52 l 3.72,14.16 3.44,-14.16 z M 68.32,30.84 H 53.4 c 0,0.2 -0.04,0.68 0.08,1.24 0.48,2.44 2.2,3.96 4.68,3.96 0.36,0 1.16,-0.04 2,-0.36 2.08,-0.72 3,-2.84 3.28,-3.36 l 4.64,2.4 c -0.84,1.24 -1.28,1.8 -1.76,2.36 -3.08,3.4 -7.08,3.68 -8.64,3.68 -0.64,0 -2.12,-0.04 -3.76,-0.56 -4.64,-1.44 -6.8,-5.52 -6.8,-10.24 0,-1.28 0.08,-5.16 2.68,-8.16 1.28,-1.44 3.48,-3.32 8.04,-3.32 1.4,0 5.56,0.16 8.16,3.8 2.36,3.24 2.28,7.56 2.32,8.56 z M 61.96,27 c -0.08,-0.68 -0.2,-2.8 -2.28,-3.72 -0.84,-0.4 -1.52,-0.4 -1.88,-0.4 -2.44,0 -3.56,1.8 -3.88,2.52 -0.16,0.36 -0.32,0.8 -0.48,1.6 z m 28.6,13 H 84.4 V 28.2 c 0,-1.4 -0.04,-2.44 -0.24,-3 -0.28,-0.72 -1.04,-1.68 -2.8,-1.68 -0.28,0 -1.32,0 -2.08,0.64 -1.04,0.8 -1.16,2.08 -1.16,4.56 V 40 H 71.96 V 19.16 h 6.24 v 1.8 c 0.2,-0.2 0.44,-0.52 0.96,-0.92 0.76,-0.56 2.44,-1.44 4.92,-1.44 0.48,0 2.24,0.04 3.72,0.84 2.56,1.36 2.76,3.72 2.76,6.28 z m 16.4,-16.6 h -4.08 v 9.36 c 0,0.84 -0.04,1.32 0.16,1.68 0.36,0.68 1.32,0.68 1.44,0.68 0.72,0 1.44,-0.04 2.16,-0.04 v 4.76 c -0.4,0.08 -1.84,0.32 -3.24,0.32 -0.44,0 -0.88,0 -1.28,-0.04 -0.56,-0.04 -2.4,0 -3.8,-1.28 -1.6,-1.4 -1.52,-3.52 -1.52,-5.44 V 23.36 H 93.76 V 19.6 h 3.04 v -6.52 h 6.08 v 6.56 h 4.08 z M 134.72,40 h -7.08 V 27.96 H 117.32 V 40 H 110.2 V 11.76 h 7.16 v 10.2 h 10.28 v -10.2 h 7.08 z m 24.12,0 h -6.16 v -1.96 c -0.44,0.48 -0.68,0.72 -0.92,0.92 -0.76,0.6 -2.6,1.64 -5.16,1.64 -0.48,0 -2.8,0 -4.44,-1.28 -2.32,-1.84 -2.12,-5.2 -2.12,-7.76 V 19.12 h 6.2 v 13 c 0,1.32 0.04,2.32 1.16,3 0.36,0.2 0.88,0.48 1.8,0.48 1.96,0 3,-1.12 3.28,-1.88 0.2,-0.52 0.24,-1.04 0.24,-1.6 v -13 h 6.12 z m 26.4,-10.84 c 0,3.12 -0.72,5.36 -1.28,6.48 -0.72,1.48 -3,4.92 -7.8,4.92 -0.84,0 -3,-0.08 -4.88,-1.56 -0.48,-0.36 -0.84,-0.76 -1.2,-1.2 l 0.04,2.2 H 164.4 V 11.76 h 6 v 9.28 c 0.64,-0.68 0.68,-0.72 1.12,-1.04 0.84,-0.64 2.32,-1.48 4.84,-1.48 1.12,0 3.36,0.16 5.56,2.08 1.64,1.4 3.32,3.76 3.32,8.56 z m -6,0.16 c 0,-0.52 -0.04,-1.56 -0.36,-2.84 -0.24,-0.92 -0.92,-3.64 -4.12,-3.44 -2.4,0.12 -4.52,1.68 -4.52,6.36 0,0.2 0,2.92 0.92,4.52 0.16,0.32 0.48,0.8 1.2,1.32 1,0.68 2.04,0.76 2.48,0.76 1.88,0 2.92,-1.2 3.28,-1.76 1.12,-1.64 1.12,-4.68 1.12,-4.92 z"
         id="path2" />
    </g>
  </g>
</svg>
